<?xml version="1.0" encoding="utf-8"?>
<!-- Generator: Adobe Illustrator 18.1.0, SVG Export Plug-In . SVG Version: 6.00 Build 0)  -->
<svg version="1.1" id="Layer_1" xmlns="http://www.w3.org/2000/svg" xmlns:xlink="http://www.w3.org/1999/xlink" x="0px" y="0px"
	 viewBox="0 0 1000 1000" enable-background="new 0 0 1000 1000" xml:space="preserve">
<g>
	<polygon fill="#231F20" points="190.3,79.8 190.3,114.4 190.3,133.3 190.3,271.8 190.3,271.8 190.3,325.3 684.4,325.3 741.1,325.3 
		741.2,325.3 741.2,180.5 741.1,180.5 741.1,177.4 382.3,177.4 382.3,230.8 684.4,230.8 684.4,271.8 247.1,271.8 247.1,133.3 
		788.3,133.3 788.3,369.3 388.6,369.3 388.6,369.4 385.5,369.4 385.5,920.2 385.5,920.2 439,920.2 583.8,920.2 634.2,920.2 
		637.3,920.2 637.3,520.4 637.3,467 637.3,466.9 486.1,466.9 486.1,467 483.1,467 483.1,715.6 536.6,715.6 536.6,520.4 583.8,520.4 
		583.8,873 439,873 439,422.8 841.8,422.8 841.8,388.3 841.8,369.3 841.8,133.3 841.8,79.9 841.8,79.8 	"/>
	<rect x="483.1" y="766" fill="#DC1F26" width="53.5" height="47.2"/>
	<rect x="278.5" y="177.4" fill="#DC1F26" width="56.7" height="53.5"/>
	<rect x="187.1" y="369.3" fill="#231F20" width="151.1" height="53.5"/>
</g>
</svg>
