<?xml version="1.0" encoding="iso-8859-1"?>
<!-- Generator: Adobe Illustrator 13.0.0, SVG Export Plug-In . SVG Version: 6.00 Build 14948)  -->
<!DOCTYPE svg PUBLIC "-//W3C//DTD SVG 1.1//EN" "http://www.w3.org/Graphics/SVG/1.1/DTD/svg11.dtd">
<svg version="1.1" id="Layer_1" xmlns="http://www.w3.org/2000/svg" xmlns:xlink="http://www.w3.org/1999/xlink" x="0px" y="0px"
	 width="100px" height="100px" viewBox="0 0 100 100" enable-background="new 0 0 100 100" xml:space="preserve">
<g>
	<polygon fill="#A0A1A4" points="50.801,93.167 49.849,92.818 24.528,83.643 22.707,82.981 22.707,81.048 22.707,18.56 
		22.707,16.663 24.477,15.98 48.342,6.801 49.288,6.439 50.241,6.778 76.54,15.955 78.394,16.594 78.394,18.56 78.394,81.048 
		78.394,82.969 76.588,83.634 51.751,92.812 50.801,93.167 	"/>
	<polygon fill="#FFFFFF" points="75.631,81.048 50.792,90.227 25.471,81.048 25.471,18.56 49.331,9.38 75.631,18.56 	"/>
	<polygon fill="#CC3129" points="50.78,87.282 28.232,79.109 28.232,20.453 49.381,12.324 72.87,20.517 72.87,79.126 50.78,87.282 	
		"/>
	<g>
		<path fill="#FFFFFF" d="M53.547,82.588l-3.015,1.17l-2.906-1.17V29.273h-8.878v4.617h-5.92V23.113h35.512v10.777h-5.92v-4.617
			h-8.874V82.588z"/>
	</g>
	<rect x="32.829" y="40.68" fill="#FFFFFF" width="5.991" height="2.266"/>
	<rect x="32.829" y="44.583" fill="#FFFFFF" width="5.991" height="2.264"/>
	<rect x="32.829" y="48.488" fill="#FFFFFF" width="5.991" height="2.266"/>
	<rect x="32.829" y="52.392" fill="#FFFFFF" width="5.991" height="2.264"/>
	<rect x="32.829" y="56.298" fill="#FFFFFF" width="5.991" height="2.265"/>
	<rect x="32.829" y="60.201" fill="#FFFFFF" width="5.991" height="2.266"/>
	<rect x="32.829" y="64.108" fill="#FFFFFF" width="5.991" height="2.262"/>
	<rect x="32.829" y="68.01" fill="#FFFFFF" width="5.991" height="2.265"/>
	<rect x="62.568" y="40.68" fill="#FFFFFF" width="5.991" height="2.266"/>
	<rect x="62.568" y="44.583" fill="#FFFFFF" width="5.991" height="2.264"/>
	<rect x="62.568" y="48.488" fill="#FFFFFF" width="5.991" height="2.266"/>
	<rect x="62.568" y="52.392" fill="#FFFFFF" width="5.991" height="2.264"/>
	<rect x="62.568" y="56.298" fill="#FFFFFF" width="5.991" height="2.265"/>
	<rect x="62.568" y="60.201" fill="#FFFFFF" width="5.991" height="2.266"/>
	<rect x="62.568" y="64.108" fill="#FFFFFF" width="5.991" height="2.262"/>
	<rect x="62.568" y="68.01" fill="#FFFFFF" width="5.991" height="2.265"/>
</g>
</svg>
